<svg width="321" height="155" viewBox="0 0 321 155" fill="none" xmlns="http://www.w3.org/2000/svg">
<path d="M8.4946 117.719C8.4946 117.719 22.8703 119.468 27.6894 119.462C32.1245 119.462 38.721 119.648 48.8894 112.023C48.8894 112.023 50.3813 120.585 58.9569 126.603C58.9569 126.603 61.7709 132.026 64.987 137.686H120.956C121.01 133.267 120.749 128.673 120.005 123.996C120.005 123.996 132.156 100.907 125.14 85.981C125.14 85.981 146.091 80.2783 155.131 58.1234C155.131 58.1234 164.662 49.7981 159.431 44.5531C159.431 44.5531 153.724 34.3179 137.523 27.4132C137.523 27.4132 126.812 21.2324 125.15 19.088C125.15 19.088 120.628 11.9465 104.198 24.0781C104.198 24.0781 101.347 33.3719 106.814 37.4184C106.814 37.4184 115.148 38.8515 118.952 31.462C118.952 31.462 119.662 30.5262 118.255 30.0425C118.255 30.0425 121.334 30.2782 123.009 27.1844C123.009 27.1844 130.156 30.0425 133.472 38.6147C136.804 47.1937 136.322 47.8893 138.231 49.3325C138.231 49.3325 123.479 53.3869 120.142 64.5635C120.142 64.5635 104.185 67.1793 101.569 77.1845C101.569 77.1845 88.9545 79.082 91.5782 67.1793C91.5782 67.1793 93.7215 64.5635 99.5069 64.8864C99.5069 64.8864 102.4 65.0473 100.3 59.4805C100.105 58.9605 100.794 58.3465 101.174 57.4097C101.533 56.5544 101.186 56.3992 99.5976 55.042C99.0776 54.6138 100.02 53.6407 100.417 52.5872C100.666 51.9539 99.5976 49.6418 99.5976 49.6418C99.5976 49.6418 102.078 47.7012 101.967 46.7848C101.719 44.6142 95.9419 43.4995 94.9858 41.5522C94.604 40.7773 95.9532 39.0486 95.7788 38.2296C95.1228 35.1244 91.9237 28.8009 87.6393 26.3336C81.7689 22.9611 65.7426 21.8883 58.7598 36.016C56.8736 39.828 58.3837 49.0652 60.0263 53.0018C61.5636 56.7322 68.4762 66.7816 68.4762 66.7816C68.8013 67.7355 71.0069 81.7147 58.9547 85.1914C58.9547 85.1914 47.9978 84.5548 40.0634 91.8616C40.0634 91.8616 26.5736 90.7457 22.927 98.6811C22.927 98.6811 21.9878 84.8698 30.7152 76.4652C30.7152 76.4652 35.7858 77.7294 37.851 76.4652C37.851 76.4652 39.4381 81.6218 42.9261 79.6382C42.9261 79.6382 45.398 80.3463 45.7899 78.0398C45.7899 78.0398 49.4309 77.8099 48.7217 74.2336C48.7217 74.2336 50.5433 69.1629 47.6115 67.7378C47.6115 67.7378 47.752 63.2948 43.7893 63.4488C43.7893 63.4488 36.5777 63.9824 34.1908 63.7706C31.0823 63.5111 25.6095 64.5648 22.2824 70.4464L10.7082 86.6313C10.7082 86.6313 2.61403 97.4231 1.50497 108.054C1.51857 108.049 -1.81991 115.984 8.4946 117.719Z" fill="url(#paint0_linear_37_669)"/>
<path d="M193.289 44.125H180.727V54.2266H192.305V58.9375H180.727V73H175.148V39.3906H193.289V44.125ZM201.422 43.9609C200.531 43.9609 199.766 43.6719 199.125 43.0938C198.5 42.5156 198.188 41.7812 198.188 40.8906C198.188 40 198.5 39.2578 199.125 38.6641C199.766 38.0703 200.531 37.7734 201.422 37.7734C202.344 37.7734 203.125 38.0703 203.766 38.6641C204.406 39.2578 204.727 40 204.727 40.8906C204.727 41.7344 204.406 42.4609 203.766 43.0703C203.125 43.6641 202.344 43.9609 201.422 43.9609ZM204.117 73H198.68V49H204.117V73ZM223.898 72.7422C222.836 73.2734 221.438 73.5391 219.703 73.5391C215.047 73.5391 212.719 71.3047 212.719 66.8359V53.2656H208.711V49H212.719V43.4453L218.156 41.8984V49H223.898V53.2656H218.156V65.2656C218.156 66.6875 218.414 67.7031 218.93 68.3125C219.445 68.9219 220.305 69.2266 221.508 69.2266C222.43 69.2266 223.227 68.9609 223.898 68.4297V72.7422ZM249.961 73H244.523V59.4766C244.523 54.9922 242.938 52.75 239.766 52.75C238.109 52.75 236.742 53.375 235.664 54.625C234.586 55.8594 234.047 57.4219 234.047 59.3125V73H228.586V49H234.047V52.9844H234.141C235.938 49.9531 238.531 48.4375 241.922 48.4375C244.531 48.4375 246.523 49.2891 247.898 50.9922C249.273 52.6797 249.961 55.125 249.961 58.3281V73ZM276.938 62.4766H260.578C260.641 64.6953 261.32 66.4062 262.617 67.6094C263.93 68.8125 265.727 69.4141 268.008 69.4141C270.57 69.4141 272.922 68.6484 275.062 67.1172V71.5C272.875 72.875 269.984 73.5625 266.391 73.5625C262.859 73.5625 260.086 72.4766 258.07 70.3047C256.07 68.1172 255.07 65.0469 255.07 61.0938C255.07 57.3594 256.172 54.3203 258.375 51.9766C260.594 49.6172 263.344 48.4375 266.625 48.4375C269.906 48.4375 272.445 49.4922 274.242 51.6016C276.039 53.7109 276.938 56.6406 276.938 60.3906V62.4766ZM271.688 58.6328C271.672 56.6797 271.211 55.1641 270.305 54.0859C269.398 52.9922 268.148 52.4453 266.555 52.4453C264.992 52.4453 263.664 53.0156 262.57 54.1562C261.492 55.2969 260.828 56.7891 260.578 58.6328H271.688ZM280.617 72.25V67.2109C282.648 68.7578 284.891 69.5312 287.344 69.5312C290.625 69.5312 292.266 68.5625 292.266 66.625C292.266 66.0781 292.125 65.6172 291.844 65.2422C291.562 64.8516 291.18 64.5078 290.695 64.2109C290.227 63.9141 289.664 63.6484 289.008 63.4141C288.367 63.1797 287.648 62.9141 286.852 62.6172C285.867 62.2266 284.977 61.8125 284.18 61.375C283.398 60.9375 282.742 60.4453 282.211 59.8984C281.695 59.3359 281.305 58.7031 281.039 58C280.773 57.2969 280.641 56.4766 280.641 55.5391C280.641 54.3828 280.914 53.3672 281.461 52.4922C282.008 51.6016 282.742 50.8594 283.664 50.2656C284.586 49.6562 285.633 49.2031 286.805 48.9062C287.977 48.5938 289.188 48.4375 290.438 48.4375C292.656 48.4375 294.641 48.7734 296.391 49.4453V54.2031C294.703 53.0469 292.766 52.4688 290.578 52.4688C289.891 52.4688 289.266 52.5391 288.703 52.6797C288.156 52.8203 287.688 53.0156 287.297 53.2656C286.906 53.5156 286.602 53.8203 286.383 54.1797C286.164 54.5234 286.055 54.9062 286.055 55.3281C286.055 55.8438 286.164 56.2812 286.383 56.6406C286.602 57 286.922 57.3203 287.344 57.6016C287.781 57.8672 288.297 58.1172 288.891 58.3516C289.5 58.5703 290.195 58.8125 290.977 59.0781C292.008 59.5 292.93 59.9297 293.742 60.3672C294.57 60.8047 295.273 61.3047 295.852 61.8672C296.43 62.4141 296.875 63.0547 297.188 63.7891C297.5 64.5078 297.656 65.3672 297.656 66.3672C297.656 67.5859 297.375 68.6484 296.812 69.5547C296.25 70.4609 295.5 71.2109 294.562 71.8047C293.625 72.3984 292.539 72.8359 291.305 73.1172C290.086 73.4141 288.797 73.5625 287.438 73.5625C284.812 73.5625 282.539 73.125 280.617 72.25ZM301.336 72.25V67.2109C303.367 68.7578 305.609 69.5312 308.062 69.5312C311.344 69.5312 312.984 68.5625 312.984 66.625C312.984 66.0781 312.844 65.6172 312.562 65.2422C312.281 64.8516 311.898 64.5078 311.414 64.2109C310.945 63.9141 310.383 63.6484 309.727 63.4141C309.086 63.1797 308.367 62.9141 307.57 62.6172C306.586 62.2266 305.695 61.8125 304.898 61.375C304.117 60.9375 303.461 60.4453 302.93 59.8984C302.414 59.3359 302.023 58.7031 301.758 58C301.492 57.2969 301.359 56.4766 301.359 55.5391C301.359 54.3828 301.633 53.3672 302.18 52.4922C302.727 51.6016 303.461 50.8594 304.383 50.2656C305.305 49.6562 306.352 49.2031 307.523 48.9062C308.695 48.5938 309.906 48.4375 311.156 48.4375C313.375 48.4375 315.359 48.7734 317.109 49.4453V54.2031C315.422 53.0469 313.484 52.4688 311.297 52.4688C310.609 52.4688 309.984 52.5391 309.422 52.6797C308.875 52.8203 308.406 53.0156 308.016 53.2656C307.625 53.5156 307.32 53.8203 307.102 54.1797C306.883 54.5234 306.773 54.9062 306.773 55.3281C306.773 55.8438 306.883 56.2812 307.102 56.6406C307.32 57 307.641 57.3203 308.062 57.6016C308.5 57.8672 309.016 58.1172 309.609 58.3516C310.219 58.5703 310.914 58.8125 311.695 59.0781C312.727 59.5 313.648 59.9297 314.461 60.3672C315.289 60.8047 315.992 61.3047 316.57 61.8672C317.148 62.4141 317.594 63.0547 317.906 63.7891C318.219 64.5078 318.375 65.3672 318.375 66.3672C318.375 67.5859 318.094 68.6484 317.531 69.5547C316.969 70.4609 316.219 71.2109 315.281 71.8047C314.344 72.3984 313.258 72.8359 312.023 73.1172C310.805 73.4141 309.516 73.5625 308.156 73.5625C305.531 73.5625 303.258 73.125 301.336 72.25Z" fill="#4E7D96"/>
<path d="M198.586 119.594C196.055 120.906 192.906 121.562 189.141 121.562C184.266 121.562 180.359 120.023 177.422 116.945C174.484 113.867 173.016 109.828 173.016 104.828C173.016 99.4531 174.664 95.1094 177.961 91.7969C181.273 88.4844 185.453 86.8281 190.5 86.8281C193.75 86.8281 196.445 87.2891 198.586 88.2109V93.7422C196.32 92.3984 193.82 91.7266 191.086 91.7266C187.445 91.7266 184.492 92.8906 182.227 95.2188C179.977 97.5469 178.852 100.656 178.852 104.547C178.852 108.25 179.906 111.203 182.016 113.406C184.125 115.594 186.898 116.688 190.336 116.688C193.508 116.688 196.258 115.938 198.586 114.438V119.594ZM209.812 121H204.352V85.4688H209.812V121ZM237.844 121H232.406V117.203H232.312C230.734 120.109 228.281 121.562 224.953 121.562C219.281 121.562 216.445 118.156 216.445 111.344V97H221.883V110.781C221.883 115.094 223.547 117.25 226.875 117.25C228.484 117.25 229.805 116.656 230.836 115.469C231.883 114.281 232.406 112.727 232.406 110.805V97H237.844V121ZM250.477 117.531H250.383V121H244.945V85.4688H250.383V101.219H250.477C252.336 98.0312 255.055 96.4375 258.633 96.4375C261.664 96.4375 264.031 97.5156 265.734 99.6719C267.453 101.812 268.312 104.688 268.312 108.297C268.312 112.312 267.352 115.531 265.43 117.953C263.508 120.359 260.883 121.562 257.555 121.562C254.43 121.562 252.07 120.219 250.477 117.531ZM250.336 107.992V110.969C250.336 112.719 250.891 114.203 252 115.422C253.125 116.641 254.547 117.25 256.266 117.25C258.281 117.25 259.859 116.469 261 114.906C262.156 113.328 262.734 111.133 262.734 108.32C262.734 105.961 262.195 104.117 261.117 102.789C260.055 101.445 258.609 100.773 256.781 100.773C254.844 100.773 253.281 101.461 252.094 102.836C250.922 104.211 250.336 105.93 250.336 107.992Z" fill="#4E7D96" fill-opacity="0.5"/>
<defs>
<linearGradient id="paint0_linear_37_669" x1="80.9996" y1="17" x2="80.9996" y2="137.686" gradientUnits="userSpaceOnUse">
<stop stop-color="#4E7D96"/>
<stop offset="0.614583" stop-color="#4E7D96" stop-opacity="0.7"/>
<stop offset="0.8125" stop-color="#4E7D96" stop-opacity="0.43"/>
<stop offset="1" stop-color="white" stop-opacity="0.66"/>
</linearGradient>
</defs>
</svg>
